<?xml version="1.0" encoding="utf-8"?>
<!-- Generator: Adobe Illustrator 19.0.0, SVG Export Plug-In . SVG Version: 6.00 Build 0)  -->
<svg version="1.1" id="Layer_1" xmlns="http://www.w3.org/2000/svg" xmlns:xlink="http://www.w3.org/1999/xlink" x="0px" y="0px"
	 viewBox="0 0 173.8 139.1" style="enable-background:new 0 0 173.8 139.1;" xml:space="preserve">
<style type="text/css">
	.st0{opacity:0.1;}
	.st1{fill:#333333;}
</style>
<g class="st0">
	<g>
		<path class="st1" d="M156.4,0h-139C7.8,0,0,7.8,0,17.4v104.3c0,9.6,7.8,17.4,17.4,17.4h139c9.6,0,17.4-7.8,17.4-17.4V17.4
			C173.8,7.8,166,0,156.4,0z M156.4,121.6h-139V17.4h139V121.6z M78.2,87.7H34.8v15.6h43.4V87.7z M78.2,61.7H34.8v15.6h43.4V61.7z
			 M78.2,35.6H34.8v15.6h43.4V35.6z M138.2,91.2c0,0-14.8-3.9-14.8-11.4c0-7.2,9.6-10.3,9.6-25c0-12-3.6-19.1-15.6-19.1
			s-15.6,7.1-15.6,19.1c0,14.8,9.6,17.8,9.6,25c0,7.6-14.8,11.4-14.8,11.4c-0.9,0-0.9,12.2-0.9,12.2h43.4
			C139,103.4,139,91.2,138.2,91.2z"/>
	</g>
</g>
</svg>
