<?xml version="1.0" encoding="utf-8"?>
<!-- Generator: Adobe Illustrator 19.0.0, SVG Export Plug-In . SVG Version: 6.00 Build 0)  -->
<svg version="1.1" id="Capa_1" xmlns="http://www.w3.org/2000/svg" xmlns:xlink="http://www.w3.org/1999/xlink" x="0px" y="0px"
	 viewBox="-383.4 210.9 173.8 139.1" style="enable-background:new -383.4 210.9 173.8 139.1;" xml:space="preserve">
<style type="text/css">
	.st0{fill:#27933A;}
</style>
<g>
	<g>
		<path class="st0" d="M-227,210.9h-139c-9.6,0-17.4,7.8-17.4,17.4v104.3c0,9.6,7.8,17.4,17.4,17.4h139c9.6,0,17.4-7.8,17.4-17.4
			V228.3C-209.6,218.8-217.4,210.9-227,210.9z M-227,332.5h-139V228.3h139V332.5z M-305.2,298.7h-43.4v15.6h43.4V298.7z
			 M-305.2,272.6h-43.4v15.6h43.4V272.6z M-305.2,246.6h-43.4v15.6h43.4V246.6z M-245.2,302.2c0,0-14.8-3.9-14.8-11.4
			c0-7.2,9.6-10.3,9.6-25c0-12-3.6-19.1-15.6-19.1s-15.6,7.1-15.6,19.1c0,14.8,9.6,17.8,9.6,25c0,7.6-14.8,11.4-14.8,11.4
			c-0.9,0-0.9,12.2-0.9,12.2h43.4C-244.4,314.3-244.4,302.2-245.2,302.2z"/>
	</g>
</g>
</svg>
