<?xml version="1.0" encoding="utf-8"?>
<!-- Generator: Adobe Illustrator 19.0.0, SVG Export Plug-In . SVG Version: 6.00 Build 0)  -->
<svg version="1.1" id="Capa_1" xmlns="http://www.w3.org/2000/svg" xmlns:xlink="http://www.w3.org/1999/xlink" x="0px" y="0px"
	 viewBox="-502.8 182 173.8 139" style="enable-background:new -502.8 182 173.8 139;" xml:space="preserve">
<style type="text/css">
	.st0{opacity:0.1;}
	.st1{fill:#333333;}
	.st2{fill:#27933A;}
</style>
<g class="st0">
	<g>
		<path class="st1" d="M-346.4,182h-139c-9.6,0-17.4,7.8-17.4,17.4v104.3c0,9.6,7.8,17.4,17.4,17.4h139c9.6,0,17.4-7.8,17.4-17.4
			V199.4C-329,189.8-336.8,182-346.4,182z M-346.4,303.6h-139V199.4h139V303.6z M-424.6,269.7H-468v15.6h43.4V269.7z M-424.6,243.7
			H-468v15.6h43.4V243.7z M-424.6,217.6H-468v15.6h43.4V217.6z M-364.6,273.2c0,0-14.8-3.9-14.8-11.4c0-7.2,9.6-10.3,9.6-25
			c0-12-3.6-19.1-15.6-19.1c-12,0-15.6,7.1-15.6,19.1c0,14.8,9.6,17.8,9.6,25c0,7.6-14.8,11.4-14.8,11.4c-0.9,0-0.9,12.2-0.9,12.2
			h43.4C-363.8,285.4-363.8,273.2-364.6,273.2z"/>
	</g>
</g>
<g>
	<g>
		<path class="st2" d="M-544.9,182h-139c-9.6,0-17.4,7.8-17.4,17.4v104.3c0,9.6,7.8,17.4,17.4,17.4h139c9.6,0,17.4-7.8,17.4-17.4
			V199.4C-527.5,189.8-535.3,182-544.9,182z M-544.9,303.6h-139V199.4h139V303.6z M-623.1,269.7h-43.4v15.6h43.4V269.7z
			 M-623.1,243.7h-43.4v15.6h43.4V243.7z M-623.1,217.6h-43.4v15.6h43.4V217.6z M-563.1,273.2c0,0-14.8-3.9-14.8-11.4
			c0-7.2,9.6-10.3,9.6-25c0-12-3.6-19.1-15.6-19.1c-12,0-15.6,7.1-15.6,19.1c0,14.8,9.6,17.8,9.6,25c0,7.6-14.8,11.4-14.8,11.4
			c-0.9,0-0.9,12.2-0.9,12.2h43.4C-562.3,285.4-562.3,273.2-563.1,273.2z"/>
	</g>
</g>
</svg>
