<?xml version="1.0" encoding="utf-8"?>
<!-- Generator: Adobe Illustrator 19.0.0, SVG Export Plug-In . SVG Version: 6.00 Build 0)  -->
<svg version="1.1" id="图层_1" xmlns="http://www.w3.org/2000/svg" xmlns:xlink="http://www.w3.org/1999/xlink" x="0px" y="0px"
	 viewBox="-514 208.6 150 144.8" style="enable-background:new -514 208.6 150 144.8;" xml:space="preserve">
<g>
	<g>
		<path d="M-402,353.4c-2,0-5-1-7-2l-28.2-14.1c-1-1-3-1-4,0l-28.2,14.1c-6,3-14.1,1-18.1-4c-3-3-4-8-3-12.1l4-31.2c0-2,0-3-1-4
			l-22.1-22.1c-4-4-5-10.1-4-15.1c2-5,6-9.1,12.1-10.1l31.2-5c2,0,3-1,4-3l14.1-28.2c3-5,8-8,13.1-8s11.1,3,13.1,8l14.1,28.2
			c1,1,2,2,4,3l31.2,5c6,1,10.1,5,12.1,10.1c2,5,0,11.1-4,15.1l-22.1,22.1c-1,1-2,3-1,4l5,31.2c1,4-1,9.1-3,12.1
			C-393.9,351.4-398,353.4-402,353.4z M-439.2,327.3c2,0,5,1,7,2l28.2,14.1c2,1,5,0,6-1s1-2,1-4l-5-31.2c-1-5,1-9.1,4-13.1
			l22.1-22.1c1-1,2-3,1-5c0-1-1-3-4-3l-30.2-7c-5-1-9.1-4-11.1-8l-14.1-28.2c-2-3-7-3-9.1,0l-14.1,28.2c-2,4-6,7-11.1,8l-31.2,6
			c-3,0-4,3-4,3c-1,2,0,4,1,5l22.1,22.1c3,3,5,8,4,13.1l-4,31.2c0,2,0,3,1,4c1,2,4,2,6,1l28.2-14.1
			C-444.2,327.3-441.2,327.3-439.2,327.3z"/>
	</g>
</g>
</svg>
