<?xml version="1.0" encoding="utf-8"?>
<!-- Generator: Adobe Illustrator 19.0.0, SVG Export Plug-In . SVG Version: 6.00 Build 0)  -->
<svg version="1.1" id="Layer_1" xmlns="http://www.w3.org/2000/svg" xmlns:xlink="http://www.w3.org/1999/xlink" x="0px" y="0px"
	 viewBox="-342.5 247.6 125.1 66.1" style="enable-background:new -342.5 247.6 125.1 66.1;" xml:space="preserve">
<style type="text/css">
	.st0{opacity:0.1;}
	.st1{fill:#333333;}
</style>
<g class="st0">
	<g>
		<path class="st1" d="M-227.2,279.5l-21.4-8l-21.1-22.4c-1-1-2.3-1.5-3.6-1.5h-48.2c-1.6,0-3.1,0.8-4.1,2.1l-16,23.2l0,0
			c-0.3,0.4-0.5,0.8-0.6,1.2c-0.1,0.1-0.3,1.2-0.3,1.5v0.1v20.7c0,2.7,2.2,4.9,4.9,4.9l0,0h4.7c1.4,7.1,7.7,12.4,15.3,12.4
			s13.8-5.3,15.3-12.4h41c1.4,7.1,7.7,12.4,15.3,12.4s13.8-5.3,15.3-12.4h8.4c2.7,0,4.9-2.2,4.9-4.9v-2.8
			C-217.4,287.3-221.4,281.7-227.2,279.5z M-317.5,303.9c-3.2,0-5.7-2.6-5.7-5.7c0-3.2,2.6-5.7,5.7-5.7s5.7,2.6,5.7,5.7
			S-314.4,303.9-317.5,303.9z M-306.9,270.7h-21.3l9.2-13.4h12L-306.9,270.7L-306.9,270.7z M-297,270.7v-13.4h21.6l12.6,13.4H-297z
			 M-246.1,303.9c-3.2,0-5.7-2.6-5.7-5.7c0-3.2,2.6-5.7,5.7-5.7s5.7,2.6,5.7,5.7C-240.4,301.3-243,303.9-246.1,303.9z"/>
	</g>
</g>
</svg>
