<?xml version="1.0" encoding="utf-8"?>
<!-- Generator: Adobe Illustrator 19.0.0, SVG Export Plug-In . SVG Version: 6.00 Build 0)  -->
<svg version="1.1" id="Capa_1" xmlns="http://www.w3.org/2000/svg" xmlns:xlink="http://www.w3.org/1999/xlink" x="0px" y="0px"
	 viewBox="-884.6 42.9 194.1 102.9" style="enable-background:new -884.6 42.9 194.1 102.9;" xml:space="preserve">
<style type="text/css">
	.st0{fill:#27933A;}
	.st1{opacity:0.1;}
	.st2{fill:#333333;}
</style>
<g>
	<g>
		<path class="st0" d="M-491.3,197.7l-33.3-12.5l-32.7-34.8c-1.5-1.5-3.5-2.4-5.6-2.4h-74.8c-2.5,0-4.8,1.2-6.3,3.3l-24.9,36
			c0,0,0,0,0,0c-0.4,0.6-0.7,1.2-0.9,1.8c-0.1,0.2-0.4,1.8-0.4,2.4c0,0,0,0.1,0,0.1v32.2c0,4.2,3.4,7.6,7.6,7.6h0h7.3
			c2.2,11,12,19.3,23.7,19.3c11.7,0,21.4-8.3,23.7-19.3h63.7c2.2,11,12,19.3,23.7,19.3c11.7,0,21.4-8.3,23.7-19.3h13.1
			c4.2,0,7.6-3.4,7.6-7.6v-4.3C-476,209.9-482.2,201.1-491.3,197.7z M-631.5,235.6c-4.9,0-8.9-4-8.9-8.9c0-4.9,4-8.9,8.9-8.9
			c4.9,0,8.9,4,8.9,8.9C-622.6,231.7-626.6,235.6-631.5,235.6z M-615,184.1h-33l14.3-20.8h18.6L-615,184.1L-615,184.1z
			 M-599.7,184.1v-20.8h33.6l19.6,20.8H-599.7z M-520.6,235.6c-4.9,0-8.9-4-8.9-8.9c0-4.9,4-8.9,8.9-8.9c4.9,0,8.9,4,8.9,8.9
			C-511.7,231.7-515.7,235.6-520.6,235.6z"/>
	</g>
</g>
<g class="st1">
	<g>
		<path class="st2" d="M-705.8,92.6l-33.3-12.5l-32.7-34.8c-1.5-1.5-3.5-2.4-5.6-2.4h-74.8c-2.5,0-4.8,1.2-6.3,3.3l-24.9,36
			c0,0,0,0,0,0c-0.4,0.6-0.7,1.2-0.9,1.8c-0.1,0.2-0.4,1.8-0.4,2.4c0,0,0,0.1,0,0.1v32.2c0,4.2,3.4,7.6,7.6,7.6h0h7.3
			c2.2,11,12,19.3,23.7,19.3c11.7,0,21.4-8.3,23.7-19.3h63.7c2.2,11,12,19.3,23.7,19.3s21.4-8.3,23.7-19.3h13.1
			c4.2,0,7.6-3.4,7.6-7.6v-4.3C-690.5,104.8-696.7,96-705.8,92.6z M-846,130.5c-4.9,0-8.9-4-8.9-8.9c0-4.9,4-8.9,8.9-8.9
			c4.9,0,8.9,4,8.9,8.9C-837.1,126.5-841.1,130.5-846,130.5z M-829.5,79h-33l14.3-20.8h18.6L-829.5,79L-829.5,79z M-814.2,79V58.2
			h33.6l19.6,20.8H-814.2z M-735.1,130.5c-4.9,0-8.9-4-8.9-8.9c0-4.9,4-8.9,8.9-8.9c4.9,0,8.9,4,8.9,8.9
			C-726.2,126.5-730.2,130.5-735.1,130.5z"/>
	</g>
</g>
</svg>
