<?xml version="1.0" encoding="utf-8"?>
<!-- Generator: Adobe Illustrator 19.0.0, SVG Export Plug-In . SVG Version: 6.00 Build 0)  -->
<svg version="1.1" id="Capa_1" xmlns="http://www.w3.org/2000/svg" xmlns:xlink="http://www.w3.org/1999/xlink" x="0px" y="0px"
	 viewBox="-382 229.3 194.1 102.7" style="enable-background:new -382 229.3 194.1 102.7;" xml:space="preserve">
<style type="text/css">
	.st0{fill:#27933A;}
</style>
<g>
	<g>
		<path class="st0" d="M-203.1,279l-33.3-12.5l-32.7-34.8c-1.5-1.5-3.5-2.4-5.6-2.4h-74.8c-2.5,0-4.8,1.2-6.3,3.3l-24.9,36l0,0
			c-0.4,0.6-0.7,1.2-0.9,1.8c-0.1,0.2-0.4,1.8-0.4,2.4v0.1v32.2c0,4.2,3.4,7.6,7.6,7.6l0,0h7.3c2.2,11,12,19.3,23.7,19.3
			s21.4-8.3,23.7-19.3h63.7c2.2,11,12,19.3,23.7,19.3s21.4-8.3,23.7-19.3h13.1c4.2,0,7.6-3.4,7.6-7.6v-4.3
			C-187.8,291.2-194,282.4-203.1,279z M-343.3,316.9c-4.9,0-8.9-4-8.9-8.9s4-8.9,8.9-8.9s8.9,4,8.9,8.9
			C-334.4,313-338.4,316.9-343.3,316.9z M-326.8,265.4h-33l14.3-20.8h18.6L-326.8,265.4L-326.8,265.4z M-311.5,265.4v-20.8h33.6
			l19.6,20.8H-311.5z M-232.4,316.9c-4.9,0-8.9-4-8.9-8.9s4-8.9,8.9-8.9s8.9,4,8.9,8.9C-223.5,313-227.5,316.9-232.4,316.9z"/>
	</g>
</g>
</svg>
